<?xml version="1.0" ?><svg height="32" id="icon" viewBox="0 0 32 32" width="32" xmlns="http://www.w3.org/2000/svg"><defs><style>.cls-1{fill:none;}</style></defs><title/><polygon points="4 20 4 22 7.586 22 2 27.586 3.414 29 9 23.414 9 27 11 27 11 20 4 20"/><rect height="2" width="7" x="19" y="10"/><rect height="2" width="7" x="19" y="15"/><rect height="2" width="7" x="19" y="20"/><path d="M28,5H4A2.002,2.002,0,0,0,2,7V17H4V7H15V27H28a2.002,2.002,0,0,0,2-2V7A2.002,2.002,0,0,0,28,5ZM17,25V7H28l.0015,18Z"/><rect class="cls-1" data-name="&lt;Transparent Rectangle&gt;" height="32" id="_Transparent_Rectangle_" width="32"/></svg>