<?xml version="1.0" encoding="UTF-8"?>
<svg width="95px" height="26px" viewBox="0 0 95 26" version="1.1" xmlns="http://www.w3.org/2000/svg" xmlns:xlink="http://www.w3.org/1999/xlink">
    <!-- Generator: Sketch 61.2 (89653) - https://sketch.com -->
    <title>Fill 1</title>
    <desc>Created with Sketch.</desc>
    <g id="Page-1" stroke="none" stroke-width="1" fill="none" fill-rule="evenodd">
        <g id="Nav-1280" transform="translate(-25.000000, 0.000000)" fill="#FFFFFF">
            <g id="Logo/Nav" transform="translate(25.000000, 0.000000)">
                <g id="Fill-1">
                    <path d="M74.6247078,25.5175879 L83.3298233,25.5175879 L83.3298233,25.1718593 C81.5651918,24.6713568 81.4381463,24.0944724 81.4381463,16.4562814 L81.4381463,12.5909548 L88.3586231,12.5909548 C92.1279721,12.5909548 92.3380473,13.8944724 92.7361898,15.479397 L93.1243287,15.479397 L93.1243287,9.21306533 L92.7361898,9.21306533 C92.3380473,10.8703518 92.1279721,12.159799 88.3586231,12.159799 L81.4381463,12.159799 L81.4381463,0.815075377 L86.7840596,0.815075377 C92.6311522,0.815075377 93.2333677,1.85728643 94.5468378,5.11155779 L95,5.11155779 L94.4247941,1.19899497 C94.3187562,0.404020101 94.1446939,0.39798995 93.7635575,0.39798995 L74.6247078,0.39798995 L74.6247078,0.742713568 C76.4173494,1.20904523 76.5183855,1.80904523 76.5183855,9.4241206 L76.5183855,16.4562814 C76.5183855,24.0944724 76.4173494,24.6713568 74.6247078,25.1718593 L74.6247078,25.5175879 Z M53.5091506,25.5175879 L71.3515363,25.5175879 C71.8547164,25.5175879 71.9907651,25.4844221 72.1338163,24.7045226 L73.0031274,19.9748744 L72.5219552,19.9748744 C71.0024114,24.1658291 69.6079123,25.1005025 64.6591412,25.1005025 L60.2875766,25.1005025 L60.2875766,9.4241206 C60.2875766,1.80904523 60.4206242,1.20904523 62.3193038,0.742713568 L62.3193038,0.39798995 L53.5091506,0.39798995 L53.5091506,0.742713568 C55.3017922,1.20904523 55.4008277,1.80904523 55.4008277,9.4241206 L55.4008277,16.4562814 C55.4008277,24.0944724 55.3017922,24.6713568 53.5091506,25.1718593 L53.5091506,25.5175879 Z M39.193027,25.5708543 C35.0255355,25.5708543 31.7403597,21.921608 31.7403597,12.921608 C31.7403597,3.92261307 35.3626561,0.432160804 39.193027,0.432160804 C42.9953878,0.432160804 46.6777057,3.92261307 46.6777057,12.921608 C46.6777057,21.921608 43.3655203,25.5708543 39.193027,25.5708543 L39.193027,25.5708543 Z M39.193027,26 C45.7233642,26 51.9746014,20.3035176 51.9746014,12.921608 C51.9746014,5.60603015 45.7233642,0 39.193027,0 C32.6896995,0 26.4174547,5.60603015 26.4174547,12.921608 C26.4174547,20.3035176 32.6616894,26 39.193027,26 L39.193027,26 Z M0,12.7547739 C0,4.05527638 7.55170271,0.0261306533 13.506834,0.0261306533 C17.2651791,0.0261306533 18.7627151,1.34271357 20.6994082,1.34271357 C21.2305983,1.34271357 21.595729,1.00301508 21.7557863,0.442211055 L22.2379588,0.442211055 L22.2379588,6.64924623 L21.7557863,6.64924623 C20.7734347,2.93768844 17.9624287,0.469346734 13.506834,0.469346734 C8.94120001,0.469346734 5.22486995,3.28341709 5.22486995,12.4221106 C5.22486995,21.8592965 8.39900596,25.5376884 13.2967588,25.5376884 C17.7633574,25.5376884 18.7076954,23.5939698 18.7076954,21.3045226 L18.7076954,19.8201005 C18.7076954,13.4874372 18.396584,13.1276382 16.5209127,12.7316583 L16.5209127,12.3879397 L23.4714003,12.3879397 L23.4714003,24.8673367 L23.068256,24.8673367 C22.9962302,24.3718593 22.6260978,23.4 21.634743,23.4 C20.0151633,23.4 18.0674663,25.9668342 13.2967588,25.9668342 C5.81908262,25.9668342 0,20.2693467 0,12.7547739 L0,12.7547739 Z"></path>
                </g>
            </g>
        </g>
    </g>
</svg>