<svg width="261" height="53" viewBox="0 0 261 53" fill="none" xmlns="http://www.w3.org/2000/svg">
    <title>Golf Digest Logo</title>
    <path d="M172.802 30.4151V29.948C171.806 29.7153 170.811 27.1469 170.811 21.4266C170.811 15.65 171.806 13.0252 172.802 12.789V12.3236C167.591 12.4999 160.685 15.2428 160.685 21.4266C160.685 27.6105 167.591 30.1824 172.802 30.4151Z" fill="black"></path>
    <path d="M180.06 33.2744H167.416C166.246 33.2744 165.542 32.8073 165.542 31.8149C165.542 30.9987 166.01 30.5333 166.479 30.1825L166.187 29.83C163.669 30.9969 160.158 33.1563 160.158 37.0662C160.158 41.794 163.317 43.9534 167.71 43.9534H179.183C181.581 43.9534 183.045 44.6585 183.045 46.7545C183.045 50.3136 178.244 51.9477 173.914 52.473V53.0018C183.22 52.4183 190.005 47.9831 190.005 41.972C190.012 35.6683 186.382 33.2744 180.06 33.2744Z" fill="black"></path>
    <path d="M187.729 16.2335C188.221 16.2351 188.709 16.1396 189.164 15.9526C189.62 15.7656 190.033 15.4907 190.381 15.1437C190.73 14.7967 191.006 14.3844 191.193 13.9307C191.381 13.477 191.477 12.9907 191.476 12.4999C191.469 11.5113 191.072 10.5653 190.371 9.86624C189.669 9.16722 188.721 8.77145 187.729 8.76453C186.743 8.77337 185.801 9.17161 185.11 9.87188C184.419 10.5721 184.034 11.5173 184.041 12.4999C184.033 12.9876 184.122 13.4721 184.304 13.925C184.486 14.3778 184.756 14.7901 185.1 15.1376C185.443 15.4852 185.852 15.7611 186.304 15.9492C186.755 16.1374 187.24 16.234 187.729 16.2335Z" fill="black"></path>
    <path d="M165.427 48.4484C165.427 46.5217 166.311 45.4728 166.891 44.9475L166.773 44.6549C161.855 45.0639 159.281 46.2308 159.281 48.5066C159.281 51.5421 163.553 52.9418 172.275 52.9999V52.4711C168.293 52.2948 165.427 51.3658 165.427 48.4484Z" fill="black"></path>
    <path d="M186.09 21.4266C186.09 15.2428 179.24 12.5581 174.089 12.3236V12.7907C175.085 13.0252 175.964 15.65 175.964 21.4284C175.964 27.1487 175.08 29.7135 174.089 29.9497V30.4169C179.24 30.1824 186.09 27.6158 186.09 21.4266Z" fill="black"></path>
    <path d="M23.9412 39.2274C22.9575 39.6742 21.9121 39.9714 20.8398 40.1088V40.9249C27.863 40.7486 32.7803 39.5834 35.9418 38.182V24.2877H23.9412V39.2274Z" fill="black"></path>
    <path d="M35.0026 12.1491V4.32939C32.4865 3.62427 28.3896 3.16242 24.0576 3.10425V3.92042C28.5081 6.02166 31.6678 8.41377 35.0026 12.1491Z" fill="black"></path>
    <path d="M13.6379 22.0119C13.6379 10.9821 16.9745 5.14553 21.7716 3.92039V3.11304C8.6623 3.97857 0 10.8693 0 22.0119C0 32.8654 7.66681 40.3449 19.2572 40.9196V40.1034C15.0436 39.3454 13.6379 32.5745 13.6379 22.0119Z" fill="black"></path>
    <path d="M53.5635 12.3236V12.9653C54.1404 13.142 54.6505 13.4879 55.0275 13.9577C56.3148 15.5918 56.6065 18.86 56.6065 26.5634C56.6065 34.3197 56.3148 37.5932 55.0275 39.2273C54.6739 39.6362 54.032 40.1087 53.5635 40.2197V40.8614C61.7572 40.2779 68.4904 34.9084 68.4904 26.5634C68.4904 18.2184 61.7501 12.9089 53.5635 12.3236Z" fill="black"></path>
    <path d="M37.1138 26.5581C37.1138 34.9032 43.9036 40.2726 52.0991 40.8561V40.2197C51.5686 40.1016 50.9869 39.6363 50.635 39.2273C49.2894 37.5932 49.056 34.325 49.056 26.5634C49.056 18.86 49.2894 15.5918 50.635 13.9577C51.0008 13.4759 51.5152 13.1272 52.0991 12.9653V12.3236C43.9036 12.9089 37.1138 18.2184 37.1138 26.5581Z" fill="black"></path>
    <path d="M69.6963 40.3943H81.17V0.243286L69.6963 1.29391V40.3943Z" fill="black"></path>
    <path d="M97.2903 6.02171C97.2903 2.52081 99.9232 1.17756 102.033 0.884941V0.243286C94.6063 0.652253 85.8166 2.28636 85.8166 10.2224V12.7908H82.3599V16.7007H85.8149V40.3943H97.2903V16.7007H102.733V12.7908H97.2903V6.02171Z" fill="black"></path>
    <path d="M104.287 1.17407C103.435 1.17372 102.602 1.42527 101.894 1.89691C101.185 2.36855 100.633 3.03908 100.306 3.8237C99.9801 4.60832 99.8946 5.47179 100.061 6.30489C100.227 7.13799 100.637 7.9033 101.239 8.50402C101.841 9.10475 102.609 9.5139 103.444 9.67974C104.28 9.84557 105.146 9.76063 105.933 9.43567C106.72 9.11071 107.393 8.56032 107.867 7.85411C108.34 7.1479 108.593 6.3176 108.593 5.46822C108.593 4.32965 108.139 3.23768 107.332 2.43242C106.524 1.62716 105.429 1.17454 104.287 1.17407Z" fill="black"></path>
    <path d="M123.056 3.62781H109.827V40.3943H123.056V3.62781Z" fill="black"></path>
    <path d="M125.104 3.62781V4.5092C130.315 4.97634 132.773 8.59535 132.773 22.0172C132.773 34.8556 130.198 39.1744 125.169 39.5834V40.3996C138.341 40.2233 146.418 34.0394 146.418 22.0172C146.412 8.88092 138.042 3.80409 125.104 3.62781Z" fill="black"></path>
    <path d="M147.544 40.3943H158.959V12.6744L147.544 13.7251V40.3943Z" fill="black"></path>
    <path d="M153.249 2.44201e-06C152.113 0.00104816 151.003 0.337793 150.059 0.967674C149.115 1.59756 148.38 2.4923 147.946 3.53881C147.512 4.58533 147.399 5.73664 147.621 6.84723C147.843 7.95782 148.39 8.97784 149.194 9.77836C149.997 10.5789 151.021 11.124 152.135 11.3447C153.249 11.5655 154.404 11.452 155.453 11.0186C156.502 10.5853 157.399 9.85145 158.031 8.90995C158.662 7.96845 158.999 6.86152 158.999 5.72907C159 4.97635 158.851 4.23098 158.562 3.53556C158.273 2.84014 157.85 2.20833 157.316 1.67624C156.781 1.14416 156.147 0.722239 155.45 0.434617C154.752 0.146994 154.004 -0.00069262 153.249 2.44201e-06Z" fill="black"></path>
    <path d="M256.603 35.4338C253.617 35.4338 252.213 34.2087 252.213 30.8224V16.7588H259.462V12.7908H252.213L252.48 2.69531L240.797 6.72152V12.7908H237.228V16.7588H240.741V31.8748C240.741 38.4094 244.544 40.865 249.935 40.865C255.146 40.865 258.6 38.4129 260.179 35.5555V34.6741C259.597 35.0196 257.841 35.4338 256.603 35.4338Z" fill="black"></path>
    <path d="M232.001 22.1864L227.025 19.8595C224.976 18.9253 223.805 17.9927 223.805 16.0078C223.805 13.8484 225.503 13.1468 226.967 12.9723V12.3236C220.117 12.7326 215.258 17.2259 215.258 22.2446C215.258 27.0306 218.303 29.5989 221.581 31.1149L225.151 32.749C228.137 34.1487 229.133 35.1411 229.133 36.8934C229.133 38.9946 227.61 39.9271 225.738 40.2197V40.8614C234.048 40.4524 237.562 36.7188 237.562 30.4151C237.562 26.4471 235.044 23.5861 232.001 22.1864Z" fill="black"></path>
    <path d="M215.726 32.6909V39.7527C217.834 40.3361 221.581 40.8103 224.39 40.8614V40.2198C221.814 38.9947 218.596 35.7828 215.726 32.6909Z" fill="black"></path>
    <path d="M235.981 19.6833V13.4959C234.225 12.9671 231.007 12.329 228.254 12.329V12.9706C231.064 14.016 233.581 16.3517 235.981 19.6833Z" fill="black"></path>
    <path d="M198.931 22.8298C198.931 15.0083 199.691 13.3742 201.33 12.9582V12.3236C193.373 12.9653 187.34 18.8019 187.34 26.5052C187.34 33.7997 191.671 40.8614 201.505 40.8614C210.051 40.8614 213.271 34.8503 214.208 31.5821V30.5914C212.569 31.8148 209.817 32.6327 206.781 32.6327C201.505 32.6327 198.931 29.1318 198.931 22.8298Z" fill="black"></path>
    <path d="M204.265 22.5936L200.401 23.1789V23.9369H214.041C214.041 18.8019 210.88 12.7326 202.451 12.3236V12.9653C203.558 13.2579 204.265 16.5843 204.265 22.5936Z" fill="black"></path>
</svg>
