<?xml version="1.0" encoding="utf-8"?>
<!-- Generator: Adobe Illustrator 23.1.1, SVG Export Plug-In . SVG Version: 6.00 Build 0)  -->
<svg version="1.1" id="Layer_1" xmlns="http://www.w3.org/2000/svg" xmlns:xlink="http://www.w3.org/1999/xlink" x="0px" y="0px"
	 viewBox="0 0 138.701 45" style="enable-background:new 0 0 138.701 45;" xml:space="preserve">
<style type="text/css">
	.st0{fill:#5BBA47;}
	.st1{fill:url(#SVGID_1_);}
</style>
<g>
	<g>
		<path class="st0" d="M35.58,7.166c-15.646,0-24.09,0-25.333,0c-0.907,0-1.564,0.143-1.971,0.43
			C7.869,7.883,7.666,8.229,7.666,8.635v11.251c0,0.669,0.173,1.105,0.519,1.307c0.347,0.203,1.034,0.305,2.061,0.305
			c1.243,0,6.307,0,15.194,0c0.931,0,1.599-0.149,2.006-0.448c0.406-0.298,0.609-0.686,0.609-1.164v-3.226H17.413v-5.303h18.274
			c0,3.798,0,7.011,0,9.639c0,1.17-0.125,2.144-0.376,2.92c-0.25,0.777-0.698,1.487-1.342,2.132c-0.622,0.598-1.31,1.058-2.061,1.38
			c-0.752,0.323-1.696,0.562-2.831,0.717c-1.135,0.155-2.52,0.257-4.157,0.305c-1.637,0.046-4.007,0.071-7.113,0.071
			c-3.106,0-5.471-0.024-7.095-0.071c-1.624-0.048-2.998-0.15-4.12-0.305c-1.122-0.155-2.042-0.395-2.759-0.717
			c-0.717-0.322-1.373-0.782-1.969-1.38c-0.717-0.621-1.206-1.319-1.469-2.096C0.131,23.178,0,22.192,0,20.997
			c0-2.628,0-6.951,0-12.971c0-2.556,0.763-4.49,2.292-5.804C3.821,0.908,6.15,0.251,9.279,0.251c4.777,0,13.544,0,26.3,0V7.166z"/>
		<path class="st0" d="M38.769,7.417c0-1.146,0.132-2.096,0.395-2.848c0.263-0.752,0.752-1.451,1.469-2.097
			c0.621-0.621,1.312-1.099,2.077-1.432c0.765-0.334,1.726-0.573,2.884-0.717c1.159-0.143,2.55-0.233,4.175-0.268
			C51.392,0.018,53.901,0,57.293,0c3.393,0,5.9,0.018,7.524,0.054c1.625,0.035,3.003,0.125,4.138,0.268
			c1.136,0.144,2.079,0.383,2.832,0.717c0.752,0.334,1.439,0.812,2.06,1.432c0.716,0.646,1.206,1.345,1.469,2.097
			c0.263,0.753,0.394,1.702,0.394,2.848v4.084c0,3.703,0,6.916,0,9.639c0,1.147-0.131,2.114-0.394,2.902
			c-0.263,0.788-0.752,1.506-1.469,2.15c-0.621,0.598-1.321,1.057-2.096,1.38c-0.776,0.323-1.743,0.562-2.902,0.717
			c-1.159,0.155-2.587,0.256-4.283,0.305c-1.697,0.047-4.157,0.071-7.381,0.071c-3.225,0-5.674-0.024-7.345-0.071
			c-1.673-0.048-3.095-0.15-4.265-0.305c-1.17-0.155-2.126-0.394-2.867-0.717c-0.741-0.322-1.433-0.782-2.077-1.38
			c-0.717-0.644-1.206-1.362-1.469-2.15c-0.263-0.788-0.395-1.756-0.395-2.902V7.417z M46.687,20.03c0,0.598,0.178,1.01,0.536,1.236
			c0.358,0.227,1.04,0.34,2.043,0.34c1.314,0,6.628,0,15.944,0c0.933,0,1.62-0.149,2.061-0.448c0.442-0.299,0.663-0.675,0.663-1.129
			v-3.225V8.635c0-0.669-0.185-1.122-0.555-1.361c-0.37-0.239-1.057-0.359-2.061-0.359c-1.314,0-6.664,0-16.052,0
			c-0.932,0-1.595,0.156-1.989,0.466c-0.394,0.311-0.59,0.728-0.59,1.254V20.03z"/>
		<path class="st0" d="M107.35,21.606v6.808H88.931h-8.885h-0.502V0.251h8.777v21.355H107.35z"/>
		<path class="st0" d="M117.956,28.414h-8.78V0.251h0.609h8.67h20.245v6.915h-20.745v5.195h19.635v6.521h-19.635V28.414z"/>
	</g>
	<linearGradient id="SVGID_1_" gradientUnits="userSpaceOnUse" x1="69.8082" y1="30.7412" x2="69.8082" y2="45">
		<stop  offset="0" style="stop-color:#419C46"/>
		<stop  offset="1" style="stop-color:#5BBA47"/>
	</linearGradient>
	<path class="st1" d="M26.08,44.875h-4.367V30.866h0.304h4.313h10.07v3.44H26.08v2.585h9.767v3.244H26.08V44.875z M37.718,34.431
		c0-0.57,0.065-1.042,0.196-1.417c0.13-0.374,0.374-0.722,0.73-1.043c0.309-0.309,0.654-0.546,1.034-0.713
		c0.38-0.166,0.859-0.285,1.435-0.356c0.577-0.072,1.268-0.116,2.076-0.134c0.808-0.018,2.056-0.027,3.743-0.027
		c1.687,0,2.935,0.009,3.743,0.027c0.808,0.018,1.495,0.062,2.059,0.134c0.564,0.071,1.033,0.19,1.408,0.356
		c0.374,0.166,0.716,0.404,1.024,0.713c0.357,0.32,0.601,0.669,0.731,1.043c0.131,0.375,0.196,0.847,0.196,1.417v2.032
		c0,1.841,0,3.44,0,4.794c0,0.571-0.066,1.052-0.196,1.444c-0.13,0.392-0.374,0.749-0.731,1.07
		c-0.309,0.297-0.657,0.526-1.043,0.686c-0.386,0.161-0.867,0.279-1.443,0.357c-0.577,0.076-1.287,0.127-2.13,0.151
		C49.707,44.988,48.483,45,46.879,45c-1.604,0-2.823-0.012-3.654-0.036c-0.832-0.024-1.539-0.074-2.122-0.151
		c-0.582-0.078-1.058-0.196-1.425-0.357c-0.368-0.16-0.712-0.39-1.034-0.686c-0.356-0.321-0.6-0.677-0.73-1.07
		c-0.131-0.392-0.196-0.873-0.196-1.444V34.431z M41.657,40.705c0,0.297,0.088,0.502,0.267,0.615
		c0.179,0.113,0.517,0.169,1.016,0.169c0.653,0,3.297,0,7.931,0c0.463,0,0.805-0.074,1.025-0.222c0.22-0.148,0.33-0.336,0.33-0.561
		V39.1v-4.064c0-0.333-0.092-0.558-0.276-0.677c-0.184-0.119-0.526-0.179-1.024-0.179c-0.654,0-3.316,0-7.985,0
		c-0.463,0-0.793,0.078-0.989,0.232c-0.196,0.155-0.294,0.363-0.294,0.624V40.705z M70.388,36.872
		c0.332-0.249,0.499-0.612,0.499-1.087c0-0.416-0.16-0.757-0.481-1.024c-0.321-0.267-0.695-0.401-1.123-0.401h-6.933v10.515h-4.367
		V30.866h11.621c0.986,0,1.806,0.072,2.459,0.215c0.654,0.142,1.188,0.377,1.604,0.703c0.416,0.327,0.722,0.77,0.918,1.328
		c0.196,0.559,0.294,1.266,0.294,2.121c0,0.856-0.077,1.575-0.232,2.158c-0.154,0.582-0.398,1.051-0.731,1.407
		c-0.333,0.357-0.776,0.618-1.328,0.784c-0.553,0.167-1.245,0.249-2.076,0.249v0.071l5.722,4.973h-4.848l-8.431-7.628h6.274
		C69.669,37.247,70.055,37.122,70.388,36.872z M80.992,30.866v9.339c0,0.274,0.115,0.497,0.347,0.669
		c0.232,0.173,0.591,0.258,1.078,0.258h6.202c0.523,0,0.9-0.086,1.131-0.258c0.232-0.172,0.348-0.395,0.348-0.669v-9.339h4.296
		v9.946c0,0.63-0.068,1.165-0.205,1.604c-0.137,0.44-0.395,0.849-0.776,1.23c-0.404,0.368-0.739,0.632-1.007,0.793
		c-0.267,0.161-0.636,0.282-1.105,0.365c-0.47,0.083-1.117,0.136-1.943,0.16C88.534,44.988,87.266,45,85.555,45
		c-1.699,0-2.965-0.012-3.796-0.036c-0.831-0.024-1.482-0.077-1.952-0.16c-0.47-0.083-0.844-0.207-1.123-0.374
		c-0.279-0.167-0.614-0.428-1.006-0.784c-0.38-0.38-0.639-0.79-0.776-1.23c-0.137-0.439-0.205-0.975-0.205-1.604v-9.946H80.992z
		 M108.689,44.875h-2.94L100.58,34.68h-0.053v10.195h-4.064V30.866h6.826l3.868,8.163l0.053,0.071l3.885-8.235h6.808v14.009h-4.045
		V34.68h-0.071L108.689,44.875z"/>
</g>
</svg>
