<svg width="2000" height="242" viewBox="0 0 2000 242" fill="none" xmlns="http://www.w3.org/2000/svg">
    <path fill-rule="evenodd" clip-rule="evenodd" d="M51.1702 30.2501C55.4694 12.5005 71.3592 0 89.6224 0L438.914 0.000150926L387.337 211.315C383.013 229.032 367.138 241.498 348.901 241.498H0L51.1702 30.2501ZM123.233 51.2543C108.877 51.2543 98.9512 58.913 93.4563 74.2304C84.2842 112.957 74.6503 151.579 65.2256 190.244H100.05C100.05 190.244 117.05 118.934 125.445 83.3085C128.735 81.4764 137.616 78.8798 147.27 82.8067C166.282 90.5399 161.55 99.6444 196.127 96.0874C191.662 101.92 174.857 116.957 157.218 115.539C148.523 114.84 130.113 106.585 126.95 120.006L121.026 145.147L182.888 145.425C190.031 145.425 196.351 143.262 201.846 138.934C207.341 134.607 210.913 129.112 212.561 122.449C215.355 110.579 218.258 98.7342 221.216 86.9033C223.276 77.4931 221.285 69.2162 215.24 62.0727C209.264 54.8604 201.399 51.2543 191.646 51.2543H123.233ZM217.545 154.595L237.121 74.2304C242.616 58.913 252.507 51.2543 266.795 51.2543H373.072L365.138 83.0912H272.255C271.5 83.0912 270.71 83.4003 269.885 84.0185C269.061 84.6366 268.477 85.4609 268.134 86.4912L251.855 153.565C251.649 154.87 251.924 156.003 252.679 156.965C253.503 157.927 254.568 158.407 255.873 158.407H308.221C310.054 158.407 312.357 157.471 313.159 155.007L317.665 136.427H281.992L288.684 108.825H358.918L352.213 136.427C349.779 146.726 347.342 157.028 344.687 167.268C339.123 182.586 329.198 190.244 314.91 190.244H246.909C237.293 190.244 229.497 186.638 223.521 179.426C217.545 172.282 215.553 164.005 217.545 154.595Z" fill="#000000"></path>
    <path d="M543.018 75.3872C533.326 75.3872 526.711 80.557 523.172 90.8967C522.784 92.6586 521.683 97.5271 519.867 105.502C518.052 113.477 516.02 122.379 513.772 132.209C511.569 141.992 509.625 150.616 507.94 158.081C506.255 165.5 505.412 169.209 505.412 169.209C506.061 169.209 507.615 169.209 510.072 169.209C512.484 169.209 515.127 169.209 518.002 169.209C520.877 169.209 523.358 169.209 525.445 169.209C527.578 169.209 528.737 169.209 528.923 169.209C529.097 168.514 529.528 166.566 530.217 163.367C530.952 160.168 531.751 156.598 532.613 152.657C533.433 148.947 534.145 145.725 534.748 142.989C535.352 140.254 535.676 138.816 535.72 138.677C535.72 138.631 535.72 138.631 535.72 138.677C535.674 138.677 535.651 138.7 535.652 138.747L584.347 138.955C589.169 138.955 593.411 137.495 597.073 134.574C600.734 131.653 603.084 127.943 604.122 123.446C604.812 120.293 605.567 116.885 606.387 113.222C607.254 109.559 607.989 106.36 608.593 103.624C609.243 100.842 609.568 99.4513 609.568 99.4513C610.853 93.0991 609.416 87.5119 605.255 82.6899C601.14 77.8214 595.79 75.3872 589.205 75.3872H543.018ZM541.693 117.117C542.811 111.877 543.671 107.774 544.271 104.807C545.09 101.051 545.499 99.1731 545.499 99.1731C545.673 98.4776 546.035 97.9212 546.584 97.5039C547.134 97.0866 547.687 96.8779 548.243 96.8779C549.078 96.8779 551.35 96.8779 555.06 96.8779C558.77 96.8779 562.874 96.8779 567.372 96.8779C571.87 96.8779 575.766 96.8779 579.058 96.8779C582.397 96.8779 584.229 96.8779 584.553 96.8779C585.434 96.8779 586.158 97.2025 586.726 97.8516C587.293 98.5007 587.514 99.2658 587.39 100.147C584.959 110.162 583.743 115.169 583.743 115.169C583.301 116.468 582.361 117.117 580.924 117.117H541.693Z" fill="#000000"></path>
    <path d="M609.212 145.145L621.39 90.8967C624.975 80.557 631.59 75.3872 641.235 75.3872H705.716L700.925 96.8779H645.278C644.768 96.8779 644.238 97.0866 643.689 97.5039C643.093 97.9212 642.685 98.4776 642.464 99.1731L639.679 111.553H677.588L673.006 133.044H634.888L632.294 144.45C632.17 145.331 632.391 146.096 632.958 146.745C633.479 147.394 634.18 147.719 635.061 147.719L689.388 147.788C687.966 154.326 686.369 161.466 684.596 169.209H629.436C622.851 169.209 617.524 166.775 613.455 161.907C609.341 157.085 607.926 151.497 609.212 145.145Z" fill="#000000"></path>
    <path d="M757.285 169.209L738.626 138.816H724.227C724.183 138.955 723.903 140.254 723.388 142.711C722.785 145.493 722.052 148.831 721.189 152.726C720.325 156.575 719.549 160.098 718.86 163.298C718.17 166.451 717.738 168.375 717.565 169.07H694.332L712.024 90.8271C715.517 80.5338 722.039 75.3872 731.592 75.3872H777.084C783.53 75.3872 788.787 77.8214 792.856 82.6899C796.924 87.5119 798.338 93.0991 797.098 99.4513C797.098 99.4513 796.773 100.819 796.123 103.555C795.519 106.29 794.807 109.49 793.987 113.152C793.167 116.815 792.411 120.223 791.722 123.376C790.637 127.874 788.287 131.583 784.672 134.504C781.056 137.379 776.837 138.816 772.014 138.816H763.528L782.118 169.209H757.285ZM771.621 115.1C771.621 115.1 772.86 110.092 775.337 100.077C775.462 99.2426 775.241 98.5007 774.674 97.8516C774.106 97.1561 773.405 96.8084 772.57 96.8084H736.677C736.167 96.8084 735.638 97.017 735.088 97.4343C734.539 97.898 734.177 98.4544 734.003 99.1035C734.003 99.1035 732.757 105.085 730.266 117.047H768.802C770.239 117.047 771.179 116.398 771.621 115.1Z" fill="#000000"></path>
    <path d="M790.047 169.209L807.738 90.8967C811.369 80.557 818.008 75.3872 827.653 75.3872H891.926L886.994 96.8084L831.487 96.8779C830.977 96.8779 830.448 97.0866 829.898 97.5039C829.395 97.9212 829.01 98.4776 828.743 99.1731L825.957 111.553H863.658L859.007 133.044H821.097L812.932 169.209H790.047Z" fill="#000000"></path>
    <path d="M897.887 90.8967C897.585 92.2877 896.808 95.7651 895.556 101.329C894.302 106.847 892.897 112.99 891.34 119.76C889.828 126.483 888.489 132.394 887.321 137.495C886.2 142.595 885.639 145.145 885.639 145.145C884.493 151.497 886.093 157.085 890.439 161.907C894.832 166.775 900.553 169.209 907.602 169.209C908.622 169.209 911.59 169.209 916.505 169.209C921.421 169.209 926.846 169.209 932.782 169.209C938.764 169.209 943.958 169.209 948.364 169.209C952.769 169.209 955.203 169.209 955.667 169.209C966.24 169.209 973.273 164.039 976.765 153.7C977.112 152.262 977.932 148.6 979.226 142.711C980.565 136.822 982.036 130.401 983.636 123.446C985.236 116.445 986.576 110.556 987.656 105.78C988.606 101.561 989.081 99.4513 989.081 99.4513C990.321 93.0991 988.744 87.5119 984.352 82.6899C979.958 77.8214 974.33 75.3872 967.467 75.3872C966.446 75.3872 963.479 75.3872 958.563 75.3872C953.648 75.3872 948.199 75.3872 942.217 75.3872C936.235 75.3872 931.018 75.3872 926.566 75.3872C922.161 75.3872 919.726 75.3872 919.262 75.3872C919.17 75.3872 919.1 75.3872 919.054 75.3872C908.852 75.3872 901.796 80.557 897.887 90.8967ZM951.207 147.719C950.326 147.719 947.937 147.719 944.042 147.719C940.193 147.719 935.927 147.719 931.243 147.719C926.56 147.719 922.479 147.719 919.001 147.719C915.569 147.719 913.691 147.719 913.367 147.719C912.486 147.719 911.715 147.394 911.055 146.745C910.442 146.096 910.197 145.331 910.322 144.45C910.627 143.291 911.298 140.393 912.334 135.756C913.37 131.119 914.514 125.996 915.765 120.386C917.064 114.775 918.189 109.907 919.14 105.78C920.091 101.607 920.588 99.4049 920.631 99.1731C921.069 97.643 922.03 96.8779 923.514 96.8779C924.395 96.8779 926.737 96.8779 930.54 96.8779C934.388 96.8779 938.631 96.8779 943.269 96.8779C947.952 96.8779 952.01 96.8779 955.442 96.8779C958.873 96.8779 960.774 96.8779 961.145 96.8779C961.238 96.8779 961.308 96.8779 961.354 96.8779C962.421 96.8779 963.214 97.2025 963.735 97.8516C964.256 98.5007 964.454 99.2658 964.33 100.147C964.071 101.306 963.423 104.204 962.387 108.84C961.351 113.477 960.184 118.601 958.886 124.211C957.588 129.821 956.464 134.759 955.514 139.025C954.565 143.291 954.09 145.423 954.09 145.423C953.605 146.954 952.644 147.719 951.207 147.719Z" fill="#000000"></path>
    <path d="M1045.95 169.209L1027.3 138.816H1012.9C1012.85 138.955 1012.57 140.254 1012.06 142.711C1011.45 145.493 1010.72 148.831 1009.86 152.726C1008.99 156.575 1008.22 160.098 1007.53 163.298C1006.84 166.451 1006.41 168.375 1006.23 169.07H983.002L1000.69 90.8271C1004.19 80.5338 1010.71 75.3872 1020.26 75.3872H1065.75C1072.2 75.3872 1077.46 77.8214 1081.53 82.6899C1085.59 87.5119 1087.01 93.0991 1085.77 99.4513C1085.77 99.4513 1085.44 100.819 1084.79 103.555C1084.19 106.29 1083.48 109.49 1082.66 113.152C1081.84 116.815 1081.08 120.223 1080.39 123.376C1079.31 127.874 1076.96 131.583 1073.34 134.504C1069.73 137.379 1065.51 138.816 1060.68 138.816H1052.2L1070.79 169.209H1045.95ZM1060.29 115.1C1060.29 115.1 1061.53 110.092 1064.01 100.077C1064.13 99.2426 1063.91 98.5007 1063.34 97.8516C1062.78 97.1561 1062.07 96.8084 1061.24 96.8084H1025.35C1024.84 96.8084 1024.31 97.017 1023.76 97.4343C1023.21 97.898 1022.85 98.4544 1022.67 99.1035C1022.67 99.1035 1021.43 105.085 1018.94 117.047H1057.47C1058.91 117.047 1059.85 116.398 1060.29 115.1Z" fill="#000000"></path>
    <path d="M1175.4 169.209C1174.99 169.209 1173.64 169.209 1171.37 169.209C1169.1 169.209 1166.55 169.209 1163.72 169.209C1160.94 169.209 1158.5 169.209 1156.41 169.209C1154.33 169.209 1153.19 169.209 1153.01 169.209C1153.57 166.845 1154.5 162.95 1155.8 157.525C1157.1 152.054 1158.47 146.258 1159.9 140.138C1161.37 134.017 1162.63 128.732 1163.67 124.28C1164.71 119.783 1165.23 117.534 1165.23 117.534C1161.47 123.284 1157.22 129.613 1152.46 136.521C1147.76 143.383 1143.61 149.411 1140.03 154.604C1136.46 159.751 1134.67 162.324 1134.67 162.324C1131.37 162.324 1128.41 161.304 1125.78 159.264C1123.15 157.177 1121.44 154.442 1120.64 151.057C1120.44 150.269 1119.96 148.089 1119.21 144.519C1118.5 140.903 1117.69 136.869 1116.78 132.418C1115.87 127.967 1115.07 124.049 1114.36 120.664C1113.7 117.279 1113.37 115.587 1113.37 115.587C1112.81 118.044 1111.88 122.101 1110.58 127.758C1109.29 133.415 1107.9 139.419 1106.43 145.771C1105.01 152.123 1103.75 157.618 1102.67 162.254C1101.63 166.891 1101.11 169.209 1101.11 169.209C1100.7 169.209 1099.35 169.209 1097.08 169.209C1094.81 169.209 1092.28 169.209 1089.5 169.209C1086.72 169.209 1084.28 169.209 1082.19 169.209C1080.11 169.209 1078.97 169.209 1078.79 169.209C1078.74 169.209 1078.72 169.209 1078.72 169.209C1079.15 167.355 1080.34 162.185 1082.29 153.7C1084.19 145.215 1086.3 135.779 1088.63 125.393C1091.01 114.961 1093.08 105.78 1094.85 97.8516C1096.67 89.923 1097.58 85.9587 1097.58 85.9587C1100.1 78.911 1104.66 75.3872 1111.25 75.3872C1111.62 75.3872 1112.47 75.3872 1113.82 75.3872C1115.16 75.3872 1116.62 75.3872 1118.2 75.3872C1119.78 75.3872 1121.15 75.3872 1122.3 75.3872C1123.51 75.3872 1124.18 75.3872 1124.32 75.3872C1124.41 75.3872 1124.46 75.3872 1124.46 75.3872C1124.51 75.3872 1124.53 75.3872 1124.53 75.3872C1124.73 76.3609 1125.36 79.4674 1126.42 84.7068C1127.53 89.8998 1128.76 95.7651 1130.12 102.303C1131.48 108.794 1132.67 114.52 1133.68 119.481C1134.73 124.443 1135.26 126.923 1135.26 126.923L1171.21 75.3872C1171.85 75.3872 1173.48 75.3872 1176.07 75.3872C1178.72 75.3872 1181.59 75.3872 1184.7 75.3872C1187.85 75.3872 1190.57 75.3872 1192.84 75.3872C1195.16 75.3872 1196.43 75.3872 1196.66 75.3872C1196.19 77.3809 1194.87 83.1535 1192.71 92.705C1190.55 102.21 1188.13 112.851 1185.45 124.628C1182.81 136.405 1180.48 146.791 1178.45 155.786C1176.42 164.735 1175.4 169.209 1175.4 169.209Z" fill="#000000"></path>
    <path d="M1189.87 169.209L1207.7 90.8967C1211.19 80.557 1217.55 75.3872 1226.78 75.3872H1295.02L1273.83 169.209H1251.64L1257.54 143.337L1268.04 96.8779H1230.34C1229.83 96.8779 1229.32 97.0866 1228.82 97.5039C1228.27 97.9212 1227.91 98.4776 1227.73 99.1731L1222.61 121.846H1264.85L1259.93 143.406H1217.75L1211.92 169.209H1189.87Z" fill="#000000"></path>
    <path d="M1284.33 169.209L1302.02 90.8967C1305.79 80.557 1312.27 75.3872 1321.45 75.3872H1327.43L1365.54 141.598L1379.74 75.3872H1402L1380.88 169.209H1358.9L1321.29 103.276L1306.59 169.209H1284.33Z" fill="#000000"></path>
    <path d="M1396.55 145.145L1408.73 90.8967C1412.27 80.557 1418.86 75.3872 1428.5 75.3872H1493.05L1488.19 96.8779H1432.55C1432.04 96.8779 1431.51 97.0866 1430.96 97.5039C1430.41 97.9212 1430.02 98.4776 1429.8 99.1731L1419.7 144.45C1419.58 145.331 1419.8 146.096 1420.37 146.745C1420.93 147.394 1421.66 147.719 1422.54 147.719L1476.93 147.788C1475.47 154.326 1473.85 161.466 1472.07 169.209H1416.84C1409.65 168.931 1404.23 166.311 1400.58 161.35C1396.92 156.343 1395.58 150.941 1396.55 145.145Z" fill="#000000"></path>
    <path d="M1485.24 145.145L1497.42 90.8967C1501 80.557 1507.62 75.3872 1517.26 75.3872H1581.74L1576.95 96.8779H1521.3C1520.79 96.8779 1520.26 97.0866 1519.71 97.5039C1519.12 97.9212 1518.71 98.4776 1518.49 99.1731L1515.7 111.553H1553.61L1549.03 133.044H1510.91L1508.32 144.45C1508.2 145.331 1508.42 146.096 1508.98 146.745C1509.5 147.394 1510.21 147.719 1511.09 147.719L1565.41 147.788C1563.99 154.326 1562.39 161.466 1560.62 169.209H1505.46C1498.88 169.209 1493.55 166.775 1489.48 161.907C1485.37 157.085 1483.95 151.497 1485.24 145.145Z" fill="#000000"></path>
    <path d="M1610.93 145.145L1623.25 90.8967C1626.79 80.557 1633.38 75.3872 1643.02 75.3872H1714.81L1709.81 96.8779H1647.07C1646.56 96.8779 1646.03 97.0866 1645.48 97.5039C1644.93 97.9212 1644.54 98.4776 1644.32 99.1731L1634.08 144.45C1633.96 145.331 1634.16 146.096 1634.68 146.745C1635.24 147.394 1635.97 147.719 1636.85 147.719H1673.02C1673.53 147.719 1674.06 147.51 1674.61 147.093C1675.16 146.675 1675.45 146.119 1675.49 145.423L1678.34 133.044H1642.38L1646.96 111.553H1706.5C1705.77 114.798 1704.69 119.551 1703.26 125.81C1701.88 132.024 1700.54 137.912 1699.24 143.476C1697.99 149.04 1697.21 152.448 1696.91 153.7C1693.32 164.039 1686.71 169.209 1677.06 169.209H1631.15C1624.66 169.209 1619.36 166.775 1615.24 161.907C1611.13 157.085 1609.69 151.497 1610.93 145.145Z" fill="#000000"></path>
    <path d="M1721.6 90.8967C1721.3 92.2877 1720.53 95.7651 1719.27 101.329C1718.02 106.847 1716.61 112.99 1715.06 119.76C1713.55 126.483 1712.21 132.394 1711.04 137.495C1709.92 142.595 1709.36 145.145 1709.36 145.145C1708.21 151.497 1709.81 157.085 1714.16 161.907C1718.55 166.775 1724.27 169.209 1731.32 169.209C1732.34 169.209 1735.31 169.209 1740.22 169.209C1745.14 169.209 1750.56 169.209 1756.5 169.209C1762.48 169.209 1767.68 169.209 1772.08 169.209C1776.49 169.209 1778.92 169.209 1779.38 169.209C1789.96 169.209 1796.99 164.039 1800.48 153.7C1800.83 152.262 1801.65 148.6 1802.94 142.711C1804.28 136.822 1805.75 130.401 1807.35 123.446C1808.95 116.445 1810.29 110.556 1811.37 105.78C1812.32 101.561 1812.8 99.4513 1812.8 99.4513C1814.04 93.0991 1812.46 87.5119 1808.07 82.6899C1803.68 77.8214 1798.05 75.3872 1791.18 75.3872C1790.16 75.3872 1787.2 75.3872 1782.28 75.3872C1777.36 75.3872 1771.92 75.3872 1765.93 75.3872C1759.95 75.3872 1754.74 75.3872 1750.28 75.3872C1745.88 75.3872 1743.44 75.3872 1742.98 75.3872C1742.89 75.3872 1742.82 75.3872 1742.77 75.3872C1732.57 75.3872 1725.51 80.557 1721.6 90.8967ZM1774.92 147.719C1774.04 147.719 1771.65 147.719 1767.76 147.719C1763.91 147.719 1759.64 147.719 1754.96 147.719C1750.28 147.719 1746.2 147.719 1742.72 147.719C1739.29 147.719 1737.41 147.719 1737.08 147.719C1736.2 147.719 1735.43 147.394 1734.77 146.745C1734.16 146.096 1733.91 145.331 1734.04 144.45C1734.34 143.291 1735.02 140.393 1736.05 135.756C1737.09 131.119 1738.23 125.996 1739.48 120.386C1740.78 114.775 1741.91 109.907 1742.86 105.78C1743.81 101.607 1744.31 99.4049 1744.35 99.1731C1744.79 97.643 1745.75 96.8779 1747.23 96.8779C1748.11 96.8779 1750.45 96.8779 1754.26 96.8779C1758.11 96.8779 1762.35 96.8779 1766.99 96.8779C1771.67 96.8779 1775.73 96.8779 1779.16 96.8779C1782.59 96.8779 1784.49 96.8779 1784.86 96.8779C1784.96 96.8779 1785.03 96.8779 1785.07 96.8779C1786.14 96.8779 1786.93 97.2025 1787.45 97.8516C1787.97 98.5007 1788.17 99.2658 1788.05 100.147C1787.79 101.306 1787.14 104.204 1786.1 108.84C1785.07 113.477 1783.9 118.601 1782.6 124.211C1781.3 129.821 1780.18 134.759 1779.23 139.025C1778.28 143.291 1777.81 145.423 1777.81 145.423C1777.32 146.954 1776.36 147.719 1774.92 147.719Z" fill="#000000"></path>
    <path d="M1812.03 145.145L1824.2 90.8967C1825.29 86.2137 1827.68 82.458 1831.39 79.6297C1835.1 76.8013 1839.37 75.3872 1844.19 75.3872H1850.8L1835.39 144.45C1835.26 145.331 1835.48 146.096 1836.05 146.745C1836.62 147.394 1837.34 147.719 1838.22 147.719L1893.25 147.788C1893.07 148.484 1892.85 149.388 1892.59 150.501C1892.12 152.587 1891.58 154.952 1890.97 157.595C1890.41 160.237 1889.87 162.648 1889.35 164.828C1888.88 167.007 1888.56 168.467 1888.38 169.209H1832.6C1825.92 169.209 1820.5 166.775 1816.34 161.907C1812.13 157.085 1810.69 151.497 1812.03 145.145Z" fill="#000000"></path>
    <path d="M1898.12 169.209L1915.81 90.8967C1919.44 80.557 1926.08 75.3872 1935.73 75.3872H2000L1995.07 96.8084L1939.56 96.8779C1939.05 96.8779 1938.52 97.0866 1937.97 97.5039C1937.47 97.9212 1937.08 98.4776 1936.82 99.1731L1934.03 111.553H1971.73L1967.08 133.044H1929.17L1921.01 169.209H1898.12Z" fill="#000000"></path>
</svg>
