<svg height="39" role="img" aria-label="Stix Logo" viewBox="0 0 84 39" width="84" xmlns="http://www.w3.org/2000/svg" xmlns:xlink="http://www.w3.org/1999/xlink" fill="#000">
    <mask id="a" fill="#fff"><path d="m21.9987658.00516129v2.46215989c0 2.34086956-1.8975596 4.23865357-4.2387658 4.23865357h-9.33071529c-.45812061 0-.85060308.16415148-1.17778401.49256662-.32729313.32863956-.49088359.72280505-.49088359 1.1826087 0 .47640954.16359046.88280505.49088359 1.21929874.32718093.33683029.7196634.50524539 1.17778401.50524539h6.96897619c1.145021 0 2.2247405.1929874 3.2389341.5787378 1.0141935.3859747 1.8974474.9239831 2.6499859 1.6138008.7525386.6898177 1.3495652 1.5191024 1.7913044 2.4880786.4416269.9689761.6626648 2.0283871.6626648 3.1778962 0 1.1660028-.2210379 2.2541374-.6626648 3.2640673-.4417392 1.0102665-1.0387658 1.8969986-1.7913044 2.6607574-.7525385.7635343-1.6357924 1.3632538-2.6499859 1.798373-1.0141936.4352314-2.0939131.6527911-3.2389341.6527911h-15.29492289v-2.8440954c.19321178-2.1619075 2.00964937-3.8567181 4.22171108-3.8567181h11.07321181c.4580084 0 .8506031-.1641515 1.177784-.4925666.3271809-.3286396.490547-.7228051.490547-1.1826087 0-.4764096-.1633661-.788331-.490547-.936101-.3271809-.1478822-.7197756-.2215989-1.177784-.2215989h-6.96897619c-1.16140252 0-2.24931276-.2218233-3.26350631-.6651332-1.01419355-.4437588-1.89755961-1.0470687-2.65009818-1.8108275-.75242636-.7637588-1.34563814-1.6547546-1.77907433-2.6728752-.36353436-.8540813-.57458625-1.75966338-.63326788-2.71753155v-1.11798036c.05868163-.95764376.26973352-1.86356241.63326788-2.71753156.43343619-1.01812062 1.02664797-1.90518934 1.77907433-2.66053296.75253857-.75556802 1.63590463-1.35102384 2.65009818-1.78614306 1.01419355-.43523141 2.10210379-.65279102 3.26350631-.65279102z" fill="#fff" fill-rule="evenodd"></path></mask>
    <mask id="b" fill="#fff"><path d="m6.78126227.00826928v10.54387662h10.15865353v2.4621599c0 2.3408695-1.8974474 4.2386535-4.2386535 4.2386535h-5.92000003v7.8339411c0 .7061992.13082749 1.3671809.39270687 1.9831697.26176719.6157644.62171108 1.1537728 1.0794951 1.6134643.45800841.4601402.99803646.8254698 1.61974754 1.0964375.62137452.2709678 1.28403932.4063956 1.98743342.4063956h5.0792706v6.7008134h-5.0792706c-1.6195232 0-3.1408696-.3079944-4.56403931-.9237587-1.42328191-.616101-2.67063114-1.4617672-3.74215989-2.5375596-1.07130435-1.0757925-1.91394109-2.3279664-2.52734923-3.7569706-.61352033-1.4286676-.9201683-2.9559607-.9201683-4.5819916v-25.07863112z" fill="#fff" fill-rule="evenodd"></path></mask>
    <mask id="c" fill="#fff"><path d="m6.85553997.068331v22.1454137c0 2.3409818-1.8974474 4.2387658-4.23831697 4.2387658h-2.50928471v-26.3841795z" fill="#fff" fill-rule="evenodd"></path></mask>
    <mask id="d" fill="#fff"><path d="m6.03758766.03231417c1.38457223 0 2.68274895.67736325 3.47601683 1.81385694l4.01009821 5.74945301 5.2263674-7.56330995h8.1963535l-9.6190744 13.00746143 9.6190744 13.5248247h-5.8894811c-1.4384292 0-2.7781206-.7290884-3.5590463-1.9366059l-3.9741935-6.1438429-5.27573636 8.0804488h-8.19523142l9.5943899-13.5248247-9.5943899-13.00746143z" fill="#fff" fill-rule="evenodd"></path></mask>
    <mask id="e" fill="#fff"><path d="m4.59500701 0c.62417953 0 1.2114446.12009649 1.76190744.36028836.55012622.24019299 1.03057503.56289818 1.44112202.9686878.41065918.4057784.73492286.88615988.97391304 1.44086395.23786816.55498457.35680224 1.13851333.35680224 1.75142777 0 .62930716-.11893408 1.21735765-.35680224 1.76385975-.23899018.54651332-.56325386 1.0226648-.97391304 1.4284432-.41054699.40578962-.8909958.72849369-1.44112202.96868443-.55046284.24019074-1.13772791.36029172-1.76190744.36029172-.62429172 0-1.2114446-.12010098-1.76157082-.36029172-.55023843-.24019074-1.02664797-.56289481-1.42900421-.96868443-.40246845-.4057784-.72291725-.88192988-.96112202-1.4284432-.23820477-.5465021-.35713885-1.13455259-.35713885-1.76385975 0-.61291444.11893408-1.1964432.35713885-1.75142777.23820477-.55470407.55865357-1.03508555.96112202-1.44086395.40235624-.40578962.87876578-.72849481 1.42900421-.9686878.55012622-.24019187 1.1372791-.36028836 1.76157082-.36028836z" fill="#fff" fill-rule="evenodd"></path></mask>
    <g fill-rule="evenodd"><path d="m.10333801 26.3597195h23.66889199v-26.38159888h-23.66889199z" mask="url(#a)" transform="translate(0 11.669004)"></path><path d="m.08145863 36.9080505h16.88695647v-36.92748612h-16.88695647z" mask="url(#b)" transform="translate(26.030856 1.12202)"></path><path d="m.09929874 26.4718093h6.78204768v-26.41548391h-6.78204768z" mask="url(#c)" transform="translate(46.900421 11.556802)"></path><path d="m.04712482 26.5853576h26.92398318v-26.58502099h-26.92398318z" mask="url(#d)" transform="translate(56.54979 11.4446)"></path><path d="m.06900421 9.07040673h9.08779803v-9.08776022h-9.08779803z" mask="url(#e)" transform="translate(45.778401)"></path></g>
</svg>
